<svg viewBox="0 0 1024 1066.744" xmlns="http://www.w3.org/2000/svg">
  <path d="M745.25 967.42H278.3c-79.58 0-145.646-57.87-158.406-133.825l-.13-.942L46.08 388.638h931.84l-73.683 444.015C891.347 909.55 825.28 967.42 745.7 967.42h-.474.024zM279.06 900.637h466.432c46.61 0 85.304-33.898 92.772-78.386l.076-.55 60.995-366.28H124.66l60.995 366.28c7.545 45.04 46.238 78.937 92.85 78.937h.26-.014zM1024 455.42H0v-66.783h1024zm-691.868 52.09H265.35v-92.338L395.84 110.376l61.395 26.312L332.13 428.884zm426.518 0h-66.783v-78.625L566.805 137.09l61.35-26.713L758.65 415.173zM545.39 806.25H478.61V592.993h66.783zm-170.517 0H308.09V592.993h66.783zm341.037 0h-66.783V592.993h66.783z"
    fill="#5670f1"  stroke="#5670f1" stroke-width="3%"/>
</svg>